<?xml version="1.0" encoding="UTF-8"?> <svg xmlns="http://www.w3.org/2000/svg" id="Ebene_1" version="1.1" viewBox="0 0 77 77"><defs><style> .st0 { fill: #0096ff; } .st1 { fill: #ff69b4; } </style></defs><g><rect class="st1" x="14" y="42" width="7" height="7"></rect><rect class="st1" x="56" y="42" width="7" height="7"></rect><polygon class="st1" points="42 56 35 56 35 49 28 49 28 63 49 63 49 49 42 49 42 56"></polygon></g><path class="st0" d="M70,7V0h-14v7h-7v7h-21v-7h-7V0H7v7H0v56h7v7h7v7h49v-7h7v-7h7V7h-7ZM70,56h-7v7h-7v7H21v-7h-7v-7h-7v-21h7v-7h49v7h7v21Z"></path></svg> 